<mxfile host="app.diagrams.net" modified="2024-05-28T15:15:26.093Z" agent="Mozilla/5.0 (Windows NT 10.0; Win64; x64; rv:126.0) Gecko/20100101 Firefox/126.0" version="24.4.9" etag="4BBHbvl17E1ID8DGgYOc" type="github">
  <diagram name="Strona-1" id="i4WcAUwBe6rmCzHWFdVy">
    <mxGraphModel>
      <root>
        <mxCell id="0" />
        <mxCell id="1" parent="0" />
      </root>
    </mxGraphModel>
  </diagram>
</mxfile>
